<svg width="96" height="100" viewBox="0 0 96 100" fill="none" xmlns="http://www.w3.org/2000/svg">
<g clip-path="url(#clip0_11_34291)">
<path d="M89.8734 33.8283C90.481 33.3027 91.157 33.0722 91.8565 33.0722C92.4505 33.0722 93.0112 33.248 93.529 33.5567C93.9061 33.7834 94.2538 34.0842 94.5567 34.432C95.348 35.3386 95.9322 36.7356 95.9322 37.8981V95.389C95.9322 96.6492 95.4144 97.798 94.5801 98.6382L94.5762 98.6441L94.5704 98.646L94.5645 98.6538C93.7263 99.4822 92.5794 100 91.3192 100H4.611C2.08276 100 0 97.9172 0 95.389V37.8981C0 36.716 0.601774 35.2897 1.40674 34.3871C1.70177 34.0569 2.04955 33.7658 2.43445 33.5372C2.94439 33.2382 3.49537 33.0683 4.07565 33.0683C4.62663 33.0683 5.16197 33.2128 5.66019 33.5313V2.23321C5.66019 1.00035 6.66054 0 7.89535 0H64.2062C64.8959 0 65.5133 0.31261 65.9216 0.80497L89.2365 24.8837C89.6585 25.3155 89.8675 25.8763 89.8675 26.4351H89.8734V27.0759C89.897 27.2575 89.897 27.4414 89.8734 27.623V33.8283ZM47.2373 24.2683C48.2142 22.5275 49.3904 21.1109 50.719 20.0305C57.3854 14.6145 67.0704 18.1236 68.8093 26.6754C69.1278 28.2345 69.118 29.8328 68.7117 31.3196C66.9356 37.7926 52.2332 48.2416 47.2412 56.2405H47.2334C42.2395 48.2416 27.537 37.7926 25.763 31.3196C25.3566 29.8328 25.3468 28.2345 25.6633 26.6754C27.4042 18.1236 37.0892 14.6145 43.7537 20.0305C45.0842 21.1109 46.2604 22.5275 47.2373 24.2683ZM83.2636 25.1163L63.4696 4.67352V4.46446H10.1266V37.4643L37.9723 62.3403C38.0134 62.3735 38.0544 62.4106 38.0935 62.4477L47.4972 70.8472L85.4089 37.7281V29.5827L83.2636 25.1163ZM33.1972 64.0362L4.46446 38.369V89.215L33.1972 64.0362ZM91.4677 89.3185V38.3455L62.3383 63.792L91.4677 89.3185ZM45.9986 75.4738L36.5421 67.0236L4.46446 95.133C4.46446 95.2718 4.4078 95.5336 4.611 95.5336H91.3192C91.3642 95.5336 91.4013 95.5199 91.4228 95.4984V95.5004L91.4306 95.4886C91.454 95.4672 91.4677 95.432 91.4677 95.387V95.2346L58.9563 66.7442L48.9469 75.4914V75.4894C48.1146 76.2202 46.8465 76.228 45.9986 75.4738Z" fill="url(#paint0_linear_11_34291)"/>
</g>
<defs>
<linearGradient id="paint0_linear_11_34291" x1="47.9661" y1="0" x2="47.9661" y2="100" gradientUnits="userSpaceOnUse">
<stop stop-color="#214475"/>
<stop offset="0.494792" stop-color="#1973A3"/>
<stop offset="1" stop-color="#0890C4"/>
</linearGradient>
<clipPath id="clip0_11_34291">
<rect width="95.9322" height="100" fill="white"/>
</clipPath>
</defs>
</svg>
