<svg width="99" height="100" viewBox="0 0 99 100" fill="none" xmlns="http://www.w3.org/2000/svg">
<g clip-path="url(#clip0_11_34285)">
<path fill-rule="evenodd" clip-rule="evenodd" d="M98.2259 32.5114V98.6328C98.2585 98.8118 98.2422 98.9909 98.1934 99.1618C98.1364 99.3327 98.0469 99.5036 97.9085 99.6419C97.8027 99.7558 97.6725 99.8372 97.5342 99.8942C97.3958 99.9512 97.2494 99.9837 97.0947 99.9837H97.0703H1.39974C1.2207 100.016 1.04167 100.008 0.86263 99.9674C0.683594 99.9186 0.512695 99.8209 0.374349 99.6907C0.349935 99.6663 0.317383 99.6338 0.292969 99.6094C0.268555 99.5849 0.244141 99.5524 0.227865 99.5198C0.154622 99.4222 0.0976563 99.3164 0.0569661 99.1943C0.016276 99.0641 0 98.9502 0 98.82V32.3161C0 31.9987 0.130208 31.7057 0.341797 31.5023C0.553385 31.2907 0.838216 31.1605 1.1556 31.1605H29.6305C29.6549 31.0547 29.7038 30.9489 29.7607 30.8512L46.7204 4.9479C46.3135 4.42706 46.0693 3.76788 46.0693 3.05988C46.0693 1.37531 47.4365 0.00811768 49.1211 0.00811768C50.8057 0.00811768 52.181 1.37531 52.181 3.05988C52.181 3.77602 51.9369 4.42706 51.5299 4.9479L68.4815 30.8431C68.5466 30.9407 68.5872 31.0465 68.6117 31.1523H96.9401C97.111 31.1279 97.29 31.1442 97.4528 31.2012L97.4772 31.2093C97.64 31.2663 97.7865 31.3558 97.9085 31.4778L97.9248 31.4941C98.055 31.6325 98.1527 31.7952 98.2015 31.9661C98.2503 32.1452 98.2585 32.3323 98.2259 32.5114ZM22.0703 57.3649L10.262 88.5254V41.6666H87.6139V84.0739C81.8848 83.5693 81.6162 81.0628 80.1107 76.8473C76.6439 67.1468 76.3102 65.7226 72.526 74.4059C70.6462 78.7272 68.75 80.4931 66.8945 80.5338C64.152 80.5908 61.499 76.8636 59.0902 72.0052C51.2614 56.2093 56.5837 54.72 46.7367 65.7877C43.4245 69.515 40.9017 70.7682 38.9486 70.4427C29.3376 68.8802 33.0892 29.4922 22.0703 57.3649ZM31.8929 31.1605H66.3574L49.8942 6.01398C49.6501 6.07908 49.3897 6.11163 49.1211 6.11163C48.8525 6.11163 48.5921 6.07908 48.348 6.01398L31.8929 31.1605ZM69.8975 46.4681C66.4958 46.4681 63.737 49.2269 63.737 52.6286C63.737 56.0303 66.4958 58.789 69.8975 58.789C73.2992 58.789 76.0579 56.0303 76.0579 52.6286C76.0579 49.2187 73.2992 46.4681 69.8975 46.4681ZM9.53776 91.7887L3.89811 97.6725H94.2953L88.4033 91.7887H9.53776ZM2.3112 95.9879L7.94271 90.1204V41.0644L2.3112 35.1806V95.9879ZM3.86556 33.4717L9.49707 39.3555H88.4115L94.2953 33.4717H3.86556ZM89.9333 90.0553L95.9147 96.0286V35.1155L89.9333 41.097V90.0553Z" fill="url(#paint0_linear_11_34285)"/>
</g>
<defs>
<linearGradient id="paint0_linear_11_34285" x1="49.1227" y1="0.00811768" x2="49.1227" y2="100.004" gradientUnits="userSpaceOnUse">
<stop stop-color="#214677"/>
<stop offset="0.505208" stop-color="#167BAB"/>
<stop offset="1" stop-color="#098FC3"/>
</linearGradient>
<clipPath id="clip0_11_34285">
<rect width="98.2503" height="100" fill="white"/>
</clipPath>
</defs>
</svg>
