<svg width="121" height="100" viewBox="0 0 121 100" fill="none" xmlns="http://www.w3.org/2000/svg">
<path d="M64.9683 84.1282H86.4079C88.1302 82.4157 90.0187 80.6348 91.9367 78.8245C95.9584 75.018 100.156 71.0452 104.472 66.0742C109.403 60.3889 109.932 58.4221 111.429 52.8542C111.713 51.8072 112.026 50.6329 112.437 49.1749L115.001 40.1626L115.03 40.0648C116.4 36.0528 116.508 33.401 115.94 31.8744C115.764 31.4047 115.539 31.0916 115.275 30.9253C115.069 30.7883 114.795 30.7393 114.511 30.7687C113.846 30.8372 113.093 31.258 112.408 32.0114L104.795 50.1437C104.726 50.31 104.628 50.4666 104.521 50.6036C104.07 51.4158 103.464 52.2084 102.681 52.9619L89.1674 68.0117C88.4335 68.8337 87.1712 68.9022 86.359 68.1683C85.537 67.4344 85.4685 66.1721 86.2024 65.3599L99.716 50.3002C99.7747 50.2317 99.8334 50.1632 99.9019 50.1045C101.301 48.7737 101.742 47.3353 101.497 46.2882C101.419 45.9653 101.282 45.6913 101.086 45.5054C100.9 45.3391 100.655 45.2216 100.352 45.1923C99.1485 45.0651 97.3773 45.9555 95.2147 48.5095C95.156 48.578 95.0875 48.6465 95.019 48.715L89.7839 53.3337L89.7545 53.3631C84.0888 58.7254 81.6523 59.9975 77.2097 62.3166C76.2801 62.8059 75.2624 63.3343 74.0001 64.0193C73.5011 64.2933 73.0118 64.626 72.5323 64.988C72.0235 65.3795 71.5342 65.7807 71.0743 66.1721C68.7258 68.1487 67.4929 69.7535 66.7883 71.5247C66.0544 73.3643 65.7902 75.6051 65.4282 78.6777C65.2814 79.9205 65.1737 81.1436 65.0857 82.3668C65.027 82.9637 64.9976 83.5508 64.9683 84.1282ZM59.9875 8.56575C63.9799 4.40698 66.7688 0.81576 72.9139 0.10143C84.4411 -1.21959 95.0484 10.5913 89.2261 22.2163C87.5626 25.5238 84.1964 29.4672 80.4585 33.3325C76.3584 37.5793 71.8278 41.7283 68.6475 44.8792L59.9875 53.4707L52.8344 46.5818C44.2233 38.2838 30.1814 27.8527 29.7214 14.9164C29.3985 5.85521 36.5418 0.0525035 44.7713 0.160142C52.1201 0.24821 55.2025 3.90793 59.9875 8.56575ZM55.2416 84.1282H33.7921C32.0699 82.4157 30.1814 80.6348 28.2634 78.8245C24.2416 75.018 20.0437 71.0452 15.7284 66.0742C10.7966 60.3889 10.2682 58.4221 8.77102 52.8542C8.48725 51.8072 8.17412 50.6329 7.76313 49.1749L5.19937 40.1626L5.17002 40.0648C3.80007 36.0528 3.69243 33.401 4.25998 31.8744C4.43611 31.4047 4.66118 31.0916 4.92538 30.9253C5.13087 30.7883 5.40486 30.7393 5.68864 30.7687C6.37361 30.8274 7.12708 31.258 7.81206 32.0016L15.4251 50.1339C15.4936 50.3002 15.5914 50.4568 15.699 50.5938C16.1492 51.406 16.7559 52.1986 17.5387 52.9521L31.0425 68.0117C31.7764 68.8337 33.0387 68.9022 33.8509 68.1683C34.6728 67.4344 34.7413 66.1721 34.0074 65.3599L20.4939 50.2905C20.4352 50.222 20.3764 50.1535 20.3079 50.0947C18.9086 48.7639 18.4683 47.3255 18.7129 46.2785C18.7912 45.9556 18.9282 45.6816 19.1239 45.4956C19.3098 45.3293 19.5545 45.2119 19.8578 45.1825C21.0614 45.0553 22.8423 45.9458 24.9951 48.4997C25.0538 48.5682 25.1223 48.6367 25.1908 48.7052L30.426 53.3239L30.4553 53.3533C36.1211 58.7156 38.5576 59.9877 43.0002 62.3069C43.9298 62.7961 44.9474 63.3245 46.2097 64.0095C46.7088 64.2835 47.1981 64.6162 47.6776 64.9783C48.1864 65.3697 48.6757 65.7709 49.1356 66.1623C51.484 68.1389 52.717 69.7437 53.4215 71.5149C54.1554 73.3545 54.4197 75.5954 54.7817 78.668C54.9285 79.9107 55.0361 81.1339 55.1242 82.357C55.1829 82.9637 55.2123 83.5508 55.2416 84.1282ZM28.8016 84.8131C28.4983 85.1654 28.3124 85.6253 28.3124 86.1244V98.0038C28.3124 99.1095 29.2126 100 30.3086 100H57.2965C58.4023 100 59.2928 99.1095 59.2928 98.0038V86.0167C59.2928 84.7447 59.2145 83.3747 59.1264 82.1026C59.0383 80.8012 58.9209 79.5095 58.7741 78.2276C58.3827 74.8712 58.0892 72.4151 57.1498 70.0568C56.181 67.6399 54.6251 65.5556 51.7385 63.119C51.2101 62.6689 50.6719 62.2188 50.1043 61.798C49.5074 61.3479 48.8616 60.9173 48.1375 60.5161C46.9632 59.8801 45.8673 59.3028 44.8692 58.7743C40.7593 56.6216 38.5087 55.4473 33.2148 50.4372C33.1757 50.3981 33.1267 50.359 33.0876 50.3296L27.9797 45.8186C24.8581 42.1686 21.8051 40.9552 19.4664 41.2097H19.4566C18.3117 41.3271 17.3332 41.7772 16.5504 42.4622L11.3935 30.1718H11.3837C11.3054 29.9957 11.2076 29.8293 11.0804 29.6727C9.6517 27.9603 7.84141 26.9622 6.10941 26.7861C4.92538 26.6686 3.7805 26.9231 2.78239 27.5689C1.83321 28.1854 1.05039 29.1443 0.561119 30.4653C-0.299992 32.7649 -0.280421 36.3366 1.40266 41.2782L3.94685 50.2317C4.31869 51.5234 4.64161 52.7661 4.94495 53.8621C6.60846 60.0758 7.19558 62.2775 12.7439 68.6575C17.1375 73.7166 21.4333 77.7873 25.5627 81.6916C26.6293 82.7387 27.7057 83.7661 28.8016 84.8131ZM32.6179 88.1206C32.8821 88.1793 33.1561 88.1793 33.4301 88.1206H55.2905V96.0076H32.3048V88.1206H32.6179ZM91.4082 84.8131C91.7116 85.1654 91.8975 85.6253 91.8975 86.1244V98.0038C91.8975 99.1095 91.007 100 89.9013 100H62.9231C61.8174 100 60.9269 99.1095 60.9269 98.0038V86.0167C60.9269 85.9482 60.9269 85.87 60.9367 85.8015C60.966 84.5196 61.015 83.2768 61.0933 82.1026C61.1813 80.8012 61.2987 79.5095 61.4455 78.2276C61.8369 74.8712 62.1305 72.4151 63.0699 70.0568C64.0386 67.6399 65.5945 65.5556 68.4812 63.119C69.0096 62.6689 69.5478 62.2188 70.1153 61.798C70.7122 61.3479 71.3581 60.9173 72.0822 60.5161C73.2564 59.8801 74.3524 59.3028 75.3505 58.7743C79.4603 56.6216 81.711 55.4473 87.0048 50.4372C87.044 50.3981 87.0929 50.359 87.132 50.3296L92.24 45.8186C95.3615 42.1686 98.4146 40.9552 100.753 41.2097H100.763C101.908 41.3271 102.886 41.7772 103.669 42.4622L108.826 30.1718H108.836C108.914 29.9957 109.012 29.8293 109.139 29.6727C110.568 27.9603 112.378 26.9622 114.11 26.7861C115.294 26.6686 116.439 26.9231 117.437 27.5689C118.386 28.1854 119.169 29.1443 119.659 30.4653C120.52 32.7649 120.5 36.3366 118.817 41.2782L116.273 50.2317C115.901 51.5234 115.578 52.7661 115.275 53.8621C113.611 60.0758 113.024 62.2775 107.476 68.6575C103.082 73.7166 98.7864 77.7873 94.657 81.6916C93.5806 82.7387 92.5042 83.7661 91.4082 84.8131ZM87.592 88.1206C87.3278 88.1793 87.0538 88.1793 86.7798 88.1206H64.9193V96.0076H87.9051V88.1206H87.592Z" fill="url(#paint0_linear_11_34296)"/>
<defs>
<linearGradient id="paint0_linear_11_34296" x1="60.1098" y1="0" x2="60.1098" y2="100" gradientUnits="userSpaceOnUse">
<stop stop-color="#214273"/>
<stop offset="0.515625" stop-color="#1877A8"/>
<stop offset="1" stop-color="#0791C5"/>
</linearGradient>
</defs>
</svg>
