<svg width="143" height="100" viewBox="0 0 143 100" fill="none" xmlns="http://www.w3.org/2000/svg">
<g clip-path="url(#clip0_11_34279)">
<path fill-rule="evenodd" clip-rule="evenodd" d="M96.3974 9.4687H125.872C134.855 9.4687 142.204 16.8185 142.204 25.8011V54.625C142.204 63.6065 134.853 70.9574 125.872 70.9574H113.182C114.998 78.1393 117.197 84.5911 123.912 90.5487C111.069 87.2643 101.156 80.624 93.8792 70.9574H91.6862C90.8333 70.9574 89.9399 70.8903 89.0211 70.763C93.8735 66.8329 97.2446 61.8995 97.2446 56.5576V44.5464C98.3162 45.2917 99.6181 45.728 101.022 45.728C104.683 45.728 107.653 42.7584 107.653 39.098C107.653 35.4376 104.683 32.4681 101.022 32.4681C99.6181 32.4681 98.3162 32.9044 97.2446 33.6485V15.6635C97.2457 13.5203 96.9483 11.443 96.3974 9.4687ZM66.0275 33.4228C62.3231 33.4228 59.32 36.4271 59.32 40.1303C59.32 43.8335 62.3242 46.8378 66.0275 46.8378C69.7307 46.8378 72.7349 43.8335 72.7349 40.1303C72.7349 36.4271 69.7307 33.4228 66.0275 33.4228ZM24.8672 33.4228C21.1628 33.4228 18.1597 36.4271 18.1597 40.1303C18.1597 43.8335 21.164 46.8378 24.8672 46.8378C28.5704 46.8378 31.5747 43.8335 31.5747 40.1303C31.5747 36.4271 28.5716 33.4228 24.8672 33.4228ZM45.4468 33.4228C41.7424 33.4228 38.7393 36.4271 38.7393 40.1303C38.7393 43.8335 41.7424 46.8378 45.4468 46.8378C49.1511 46.8378 52.1542 43.8335 52.1542 40.1303C52.1542 36.4271 49.1511 33.4228 45.4468 33.4228ZM68.2783 4.13373H22.6152C12.4486 4.13373 4.13258 12.451 4.13258 22.6163V55.2325C4.13258 65.3968 12.451 73.7151 22.6152 73.7151H36.9733C34.9192 81.8414 32.4322 89.1437 24.8302 95.8836C39.363 92.1676 50.5815 84.6536 58.8154 73.7151H61.2977C71.462 73.7151 86.7598 65.3979 86.7598 55.2325V22.6152C86.7609 12.451 78.4437 4.13373 68.2783 4.13373ZM22.6152 0H68.2783H68.2841V0.0162016C74.5171 0.0185162 80.1692 2.55407 84.2543 6.64036L84.245 6.64846C88.3371 10.744 90.8773 16.3949 90.8785 22.614H90.8947V22.6163H90.8785V55.2325H90.8947V55.236H90.8785C90.8762 61.8856 86.2564 67.6789 80.1021 71.7247C74.3713 75.4927 67.135 77.8315 61.3001 77.8315V77.8489H61.2977V77.8315H60.8302C56.708 82.9651 51.9239 87.35 46.4455 90.9467C40.3872 94.9254 33.5339 97.9227 25.8474 99.8889L25.8439 99.875C24.3974 100.24 22.8027 99.8056 21.7461 98.6124C20.2393 96.9089 20.3979 94.3063 22.1014 92.7995C25.4528 89.8288 27.6747 86.7366 29.2845 83.494C30.1802 81.6898 30.9023 79.8046 31.5284 77.8489H22.6152H22.6094V77.8315C16.3787 77.8304 10.7255 75.2936 6.64036 71.2085C2.55407 67.1222 0.0162016 61.4679 0.0150444 55.2337H0V55.2314H0.0162016V22.6152H0V22.6094H0.0162016C0.0173589 16.506 2.46033 10.9546 6.41238 6.88801C6.48413 6.80353 6.55935 6.72021 6.6392 6.64036C10.7255 2.55407 16.3799 0.0162016 22.614 0.0150444L22.6152 0ZM122.172 32.4681C118.512 32.4681 115.542 35.4376 115.542 39.098C115.542 42.7584 118.512 45.728 122.172 45.728C125.834 45.728 128.803 42.7584 128.803 39.098C128.803 35.4376 125.834 32.4681 122.172 32.4681Z" fill="url(#paint0_linear_11_34279)"/>
</g>
<defs>
<linearGradient id="paint0_linear_11_34279" x1="71.1021" y1="0" x2="71.1021" y2="100" gradientUnits="userSpaceOnUse">
<stop stop-color="#233162"/>
<stop offset="0.5" stop-color="#1876A7"/>
<stop offset="1" stop-color="#0493C8"/>
</linearGradient>
<clipPath id="clip0_11_34279">
<rect width="142.204" height="100" fill="white"/>
</clipPath>
</defs>
</svg>
